<svg width="632" height="210" viewBox="0 0 632 210" fill="none" xmlns="http://www.w3.org/2000/svg">
<path d="M224.064 34.712L220.208 27.768H221.792L224.848 33.384L227.824 27.768H229.376L225.52 34.712V39H224.064V34.712ZM234.035 29.928C236.595 29.928 238.563 31.784 238.563 34.552C238.563 37.288 236.483 39.16 233.923 39.16C231.331 39.16 229.347 37.288 229.347 34.536C229.347 31.768 231.443 29.928 234.035 29.928ZM233.987 31.208C232.371 31.208 230.883 32.408 230.883 34.536C230.883 36.664 232.275 37.88 233.923 37.88C235.539 37.88 237.027 36.664 237.027 34.552C237.027 32.408 235.619 31.208 233.987 31.208ZM248.223 30.088V39H246.767V37.608C246.191 38.648 245.135 39.16 243.951 39.16C242.127 39.16 240.575 37.912 240.575 35.432V30.088H242.031V35.192C242.031 36.984 242.959 37.912 244.399 37.912C245.823 37.912 246.767 36.984 246.767 35.192V30.088H248.223Z" fill="white"/>
<path d="M274.896 85.768C278.592 85.768 280.896 87.896 280.896 91.352C280.896 94.92 278.592 97 274.896 97H271.584V85.768H274.896ZM273.04 95.736H274.912C277.856 95.736 279.376 94.056 279.376 91.352C279.376 88.68 277.856 87.032 274.912 87.032H273.04V95.736ZM283.001 97V88.088H284.457V97H283.001ZM283.737 86.872C283.193 86.872 282.761 86.44 282.761 85.88C282.761 85.336 283.193 84.904 283.737 84.904C284.297 84.904 284.713 85.336 284.713 85.88C284.713 86.44 284.297 86.872 283.737 86.872ZM288.66 92.056V97H287.204V88.088H288.66V89.416C289.092 88.472 289.796 87.928 290.772 87.928C291.124 87.928 291.364 88.024 291.492 88.168V89.704C291.316 89.56 291.028 89.448 290.628 89.448C289.54 89.448 288.66 90.072 288.66 92.056ZM296.84 95.896C298.12 95.896 299.144 95.24 299.4 93.992H300.92C300.52 95.848 298.984 97.16 296.84 97.16C294.312 97.16 292.488 95.288 292.488 92.552C292.488 89.768 294.312 87.928 296.968 87.928C299.4 87.928 301.032 89.736 301.032 92.168C301.032 92.392 301 92.632 300.968 92.904H294.008C294.12 94.792 295.256 95.896 296.84 95.896ZM296.84 89.192C295.336 89.192 294.264 90.12 294.04 91.848H299.528C299.496 90.232 298.312 89.192 296.84 89.192ZM302.597 92.616C302.597 89.896 304.293 87.928 306.981 87.928C309.013 87.928 310.565 89.144 310.853 91.208H309.301C309.093 89.944 308.165 89.208 306.917 89.208C305.237 89.208 304.133 90.456 304.133 92.616C304.133 94.76 305.237 95.88 306.869 95.88C308.005 95.88 309.077 95.064 309.301 93.88H310.853C310.453 95.736 308.949 97.16 306.821 97.16C304.293 97.16 302.597 95.32 302.597 92.616ZM313.18 94.904V89.256H312.012V88.088H313.18V85.896H314.636V88.088H316.988V89.256H314.636V94.744C314.636 95.56 314.908 95.88 315.74 95.88C316.14 95.88 316.604 95.768 316.988 95.576V96.824C316.508 97.048 316.028 97.16 315.452 97.16C313.932 97.16 313.18 96.424 313.18 94.904ZM322.881 97V85.768H329.297V87.032H324.337V90.824H328.625V92.088H324.337V97H322.881ZM332.598 92.056V97H331.142V88.088H332.598V89.416C333.03 88.472 333.734 87.928 334.71 87.928C335.062 87.928 335.302 88.024 335.43 88.168V89.704C335.254 89.56 334.966 89.448 334.566 89.448C333.478 89.448 332.598 90.072 332.598 92.056ZM337.298 97V88.088H338.754V97H337.298ZM338.034 86.872C337.49 86.872 337.058 86.44 337.058 85.88C337.058 85.336 337.49 84.904 338.034 84.904C338.594 84.904 339.01 85.336 339.01 85.88C339.01 86.44 338.594 86.872 338.034 86.872ZM345.293 95.896C346.573 95.896 347.597 95.24 347.853 93.992H349.373C348.973 95.848 347.437 97.16 345.293 97.16C342.765 97.16 340.941 95.288 340.941 92.552C340.941 89.768 342.765 87.928 345.421 87.928C347.853 87.928 349.485 89.736 349.485 92.168C349.485 92.392 349.453 92.632 349.421 92.904H342.461C342.573 94.792 343.709 95.896 345.293 95.896ZM345.293 89.192C343.789 89.192 342.717 90.12 342.493 91.848H347.981C347.949 90.232 346.765 89.192 345.293 89.192ZM351.61 97V88.088H353.066V89.48C353.642 88.44 354.698 87.928 355.882 87.928C357.722 87.928 359.274 89.176 359.274 91.656V97H357.818V91.896C357.818 90.104 356.89 89.176 355.45 89.176C354.01 89.176 353.066 90.104 353.066 91.896V97H351.61ZM363.008 92.536C363.008 94.424 364 95.912 365.952 95.912C367.872 95.912 368.928 94.36 368.928 92.536C368.928 90.744 367.872 89.16 365.952 89.176C364 89.192 363.008 90.664 363.008 92.536ZM368.944 89.688V84.792H370.4V97H368.944V95.384C368.288 96.504 367.168 97.16 365.792 97.16C363.136 97.16 361.472 95.336 361.472 92.536C361.472 89.768 363.088 87.928 365.792 87.928C367.184 87.928 368.304 88.568 368.944 89.688ZM374.197 90.344C374.197 92.52 379.397 90.872 379.397 94.472C379.397 96.104 378.085 97.16 376.117 97.16C374.037 97.16 372.613 96.04 372.469 94.04H373.941C374.037 95.224 374.773 95.928 376.149 95.928C377.205 95.928 377.941 95.448 377.941 94.664C377.941 92.04 372.741 93.848 372.741 90.44C372.741 89.096 373.829 87.928 375.829 87.928C377.653 87.928 379.045 88.968 379.205 91.048H377.765C377.685 89.88 376.869 89.16 375.797 89.16C374.757 89.16 374.197 89.656 374.197 90.344Z" fill="white"/>
<path d="M327.888 154.768V156.032H323.04V159.632H327.408V160.896H323.04V164.736H327.888V166H321.584V154.768H327.888ZM335.645 166L333.133 162.512L330.573 166H329.005L332.365 161.44L329.229 157.088H330.861L333.229 160.384L335.645 157.088H337.229L334.013 161.456L337.293 166H335.645ZM339.164 163.904V158.256H337.996V157.088H339.164V154.896H340.62V157.088H342.972V158.256H340.62V163.744C340.62 164.56 340.892 164.88 341.724 164.88C342.124 164.88 342.588 164.768 342.972 164.576V165.824C342.492 166.048 342.012 166.16 341.436 166.16C339.916 166.16 339.164 165.424 339.164 163.904ZM348.527 164.896C349.807 164.896 350.831 164.24 351.087 162.992H352.607C352.207 164.848 350.671 166.16 348.527 166.16C345.999 166.16 344.175 164.288 344.175 161.552C344.175 158.768 345.999 156.928 348.655 156.928C351.087 156.928 352.719 158.736 352.719 161.168C352.719 161.392 352.687 161.632 352.655 161.904H345.695C345.807 163.792 346.943 164.896 348.527 164.896ZM348.527 158.192C347.023 158.192 345.951 159.12 345.727 160.848H351.215C351.183 159.232 349.999 158.192 348.527 158.192ZM354.845 166V157.088H356.301V158.48C356.877 157.44 357.933 156.928 359.117 156.928C360.957 156.928 362.509 158.176 362.509 160.656V166H361.053V160.896C361.053 159.104 360.125 158.176 358.685 158.176C357.245 158.176 356.301 159.104 356.301 160.896V166H354.845ZM366.243 161.536C366.243 163.424 367.235 164.912 369.187 164.912C371.107 164.912 372.163 163.36 372.163 161.536C372.163 159.744 371.107 158.16 369.187 158.176C367.235 158.192 366.243 159.664 366.243 161.536ZM372.179 158.688V153.792H373.635V166H372.179V164.384C371.523 165.504 370.403 166.16 369.027 166.16C366.371 166.16 364.707 164.336 364.707 161.536C364.707 158.768 366.323 156.928 369.027 156.928C370.419 156.928 371.539 157.568 372.179 158.688ZM380.184 164.896C381.464 164.896 382.488 164.24 382.744 162.992H384.264C383.864 164.848 382.328 166.16 380.184 166.16C377.656 166.16 375.832 164.288 375.832 161.552C375.832 158.768 377.656 156.928 380.312 156.928C382.744 156.928 384.376 158.736 384.376 161.168C384.376 161.392 384.344 161.632 384.312 161.904H377.352C377.464 163.792 378.6 164.896 380.184 164.896ZM380.184 158.192C378.68 158.192 377.608 159.12 377.384 160.848H382.872C382.84 159.232 381.656 158.192 380.184 158.192ZM387.477 161.536C387.477 163.424 388.469 164.912 390.421 164.912C392.341 164.912 393.397 163.36 393.397 161.536C393.397 159.744 392.341 158.16 390.421 158.176C388.469 158.192 387.477 159.664 387.477 161.536ZM393.413 158.688V153.792H394.869V166H393.413V164.384C392.757 165.504 391.637 166.16 390.261 166.16C387.605 166.16 385.941 164.336 385.941 161.536C385.941 158.768 387.557 156.928 390.261 156.928C391.653 156.928 392.773 157.568 393.413 158.688ZM401.6 166V154.768H408.016V156.032H403.056V159.824H407.344V161.088H403.056V166H401.6ZM411.316 161.056V166H409.86V157.088H411.316V158.416C411.748 157.472 412.452 156.928 413.428 156.928C413.78 156.928 414.02 157.024 414.148 157.168V158.704C413.972 158.56 413.684 158.448 413.284 158.448C412.196 158.448 411.316 159.072 411.316 161.056ZM416.017 166V157.088H417.473V166H416.017ZM416.753 155.872C416.209 155.872 415.777 155.44 415.777 154.88C415.777 154.336 416.209 153.904 416.753 153.904C417.313 153.904 417.729 154.336 417.729 154.88C417.729 155.44 417.313 155.872 416.753 155.872ZM424.012 164.896C425.292 164.896 426.316 164.24 426.572 162.992H428.092C427.692 164.848 426.156 166.16 424.012 166.16C421.484 166.16 419.66 164.288 419.66 161.552C419.66 158.768 421.484 156.928 424.14 156.928C426.572 156.928 428.204 158.736 428.204 161.168C428.204 161.392 428.172 161.632 428.14 161.904H421.18C421.292 163.792 422.428 164.896 424.012 164.896ZM424.012 158.192C422.508 158.192 421.436 159.12 421.212 160.848H426.7C426.668 159.232 425.484 158.192 424.012 158.192ZM430.329 166V157.088H431.785V158.48C432.361 157.44 433.417 156.928 434.601 156.928C436.441 156.928 437.993 158.176 437.993 160.656V166H436.537V160.896C436.537 159.104 435.609 158.176 434.169 158.176C432.729 158.176 431.785 159.104 431.785 160.896V166H430.329ZM441.727 161.536C441.727 163.424 442.719 164.912 444.671 164.912C446.591 164.912 447.647 163.36 447.647 161.536C447.647 159.744 446.591 158.16 444.671 158.176C442.719 158.192 441.727 159.664 441.727 161.536ZM447.663 158.688V153.792H449.119V166H447.663V164.384C447.007 165.504 445.887 166.16 444.511 166.16C441.855 166.16 440.191 164.336 440.191 161.536C440.191 158.768 441.807 156.928 444.511 156.928C445.903 156.928 447.023 157.568 447.663 158.688ZM452.916 159.344C452.916 161.52 458.116 159.872 458.116 163.472C458.116 165.104 456.804 166.16 454.836 166.16C452.756 166.16 451.332 165.04 451.188 163.04H452.66C452.756 164.224 453.492 164.928 454.868 164.928C455.924 164.928 456.66 164.448 456.66 163.664C456.66 161.04 451.46 162.848 451.46 159.44C451.46 158.096 452.548 156.928 454.548 156.928C456.372 156.928 457.764 157.968 457.924 160.048H456.484C456.404 158.88 455.588 158.16 454.516 158.16C453.476 158.16 452.916 158.656 452.916 159.344Z" fill="white"/>
<path d="M274.288 111.24H275.568V114.68H278.976V115.912H275.568V119.352H274.288V115.912H270.864V114.68H274.288V111.24ZM282.324 121V111.064H280.388V109.768H283.796V121H282.324ZM286.142 121V119.88L289.118 117.224C291.31 115.288 291.95 114.232 291.95 112.968C291.95 111.688 291.214 110.904 289.87 110.904C288.526 110.904 287.726 111.8 287.549 113.352H286.142C286.334 111.064 287.662 109.624 289.902 109.624C292.174 109.624 293.422 111.08 293.422 112.936C293.422 114.808 292.19 116.216 290.206 117.976L288.27 119.704H293.918V121H286.142ZM294.936 111.976C294.936 110.584 295.928 109.624 297.272 109.624C298.616 109.624 299.592 110.584 299.592 111.976C299.592 113.4 298.616 114.36 297.272 114.36C295.928 114.36 294.936 113.4 294.936 111.976ZM297.256 110.664C296.616 110.664 296.152 111.192 296.152 111.976C296.152 112.776 296.616 113.32 297.256 113.32C297.912 113.32 298.36 112.776 298.36 111.976C298.36 111.192 297.912 110.664 297.256 110.664ZM296.168 121L302.328 109.768H303.736L297.576 121H296.168ZM300.344 118.792C300.344 117.384 301.336 116.424 302.68 116.424C304.024 116.424 305 117.384 305 118.792C305 120.2 304.024 121.16 302.68 121.16C301.336 121.16 300.344 120.2 300.344 118.792ZM302.664 117.464C302.024 117.464 301.56 118.008 301.56 118.792C301.56 119.592 302.024 120.12 302.664 120.12C303.32 120.12 303.768 119.592 303.768 118.792C303.768 118.008 303.32 117.464 302.664 117.464Z" fill="white"/>
<path d="M324.288 180.24H325.568V183.68H328.976V184.912H325.568V188.352H324.288V184.912H320.864V183.68H324.288V180.24ZM334.66 183.616C333.3 183.616 332.068 184.544 332.068 186.24C332.068 187.952 333.268 188.896 334.66 188.896C336.036 188.896 337.3 187.952 337.3 186.272C337.3 184.56 336.084 183.616 334.66 183.616ZM334.644 190.16C332.356 190.16 330.596 188.576 330.596 186.24C330.596 184.816 331.22 183.376 332.82 181.504L335.156 178.768H336.82L333.476 182.688C333.892 182.496 334.356 182.384 334.884 182.384C337.028 182.384 338.772 183.952 338.772 186.24C338.772 188.576 336.948 190.16 334.644 190.16ZM339.936 180.976C339.936 179.584 340.928 178.624 342.272 178.624C343.616 178.624 344.592 179.584 344.592 180.976C344.592 182.4 343.616 183.36 342.272 183.36C340.928 183.36 339.936 182.4 339.936 180.976ZM342.256 179.664C341.616 179.664 341.152 180.192 341.152 180.976C341.152 181.776 341.616 182.32 342.256 182.32C342.912 182.32 343.36 181.776 343.36 180.976C343.36 180.192 342.912 179.664 342.256 179.664ZM341.168 190L347.328 178.768H348.736L342.576 190H341.168ZM345.344 187.792C345.344 186.384 346.336 185.424 347.68 185.424C349.024 185.424 350 186.384 350 187.792C350 189.2 349.024 190.16 347.68 190.16C346.336 190.16 345.344 189.2 345.344 187.792ZM347.664 186.464C347.024 186.464 346.56 187.008 346.56 187.792C346.56 188.592 347.024 189.12 347.664 189.12C348.32 189.12 348.768 188.592 348.768 187.792C348.768 187.008 348.32 186.464 347.664 186.464Z" fill="white"/>
<path d="M150 1H632" stroke="#FFAAAD"/>
<path d="M150 70H632" stroke="#FFAAAD"/>
<path d="M150 140H632" stroke="#FFAAAD"/>
<path d="M150 209H632" stroke="#FFAAAD"/>
<path d="M150 0L300 210H0L150 0Z" fill="#C30B47"/>
<path d="M150 0L250 140H50L150 0Z" fill="#EB315F"/>
<path d="M150 0L200 70H100L150 0Z" fill="#FF6968"/>
<path d="M277 45C277 40.5817 280.582 37 285 37C289.418 37 293 40.5817 293 45H277ZM285 36C281.685 36 279 33.315 279 30C279 26.685 281.685 24 285 24C288.315 24 291 26.685 291 30C291 33.315 288.315 36 285 36Z" fill="#FF7D7D"/>
<path d="M391 103C391 98.5817 394.582 95 399 95C403.418 95 407 98.5817 407 103H391ZM399 94C395.685 94 393 91.315 393 88C393 84.685 395.685 82 399 82C402.315 82 405 84.685 405 88C405 91.315 402.315 94 399 94Z" fill="#FF7D7D"/>
<path d="M467 172C467 167.582 470.582 164 475 164C479.418 164 483 167.582 483 172H467ZM475 163C471.685 163 469 160.315 469 157C469 153.685 471.685 151 475 151C478.315 151 481 153.685 481 157C481 160.315 478.315 163 475 163Z" fill="#FF7D7D"/>
<path d="M523 172C523 167.582 526.582 164 531 164C535.418 164 539 167.582 539 172H523ZM531 163C527.685 163 525 160.315 525 157C525 153.685 527.685 151 531 151C534.315 151 537 153.685 537 157C537 160.315 534.315 163 531 163Z" fill="#FF7D7D"/>
<path d="M579 172C579 167.582 582.582 164 587 164C591.418 164 595 167.582 595 172H579ZM587 163C583.685 163 581 160.315 581 157C581 153.685 583.685 151 587 151C590.315 151 593 153.685 593 157C593 160.315 590.315 163 587 163Z" fill="#FF7D7D"/>
<path d="M419 103C419 98.5817 422.582 95 427 95C431.418 95 435 98.5817 435 103H419ZM427 94C423.685 94 421 91.315 421 88C421 84.685 423.685 82 427 82C430.315 82 433 84.685 433 88C433 91.315 430.315 94 427 94Z" fill="#FF7D7D"/>
<path d="M495 172C495 167.582 498.582 164 503 164C507.418 164 511 167.582 511 172H495ZM503 163C499.685 163 497 160.315 497 157C497 153.685 499.685 151 503 151C506.315 151 509 153.685 509 157C509 160.315 506.315 163 503 163Z" fill="#FF7D7D"/>
<path d="M551 172C551 167.582 554.582 164 559 164C563.418 164 567 167.582 567 172H551ZM559 163C555.685 163 553 160.315 553 157C553 153.685 555.685 151 559 151C562.315 151 565 153.685 565 157C565 160.315 562.315 163 559 163Z" fill="#FF7D7D"/>
<path d="M607 172C607 167.582 610.582 164 615 164C619.418 164 623 167.582 623 172H607ZM615 163C611.685 163 609 160.315 609 157C609 153.685 611.685 151 615 151C618.315 151 621 153.685 621 157C621 160.315 618.315 163 615 163Z" fill="#FF7D7D"/>
<path d="M391 127C391 122.582 394.582 119 399 119C403.418 119 407 122.582 407 127H391ZM399 118C395.685 118 393 115.315 393 112C393 108.685 395.685 106 399 106C402.315 106 405 108.685 405 112C405 115.315 402.315 118 399 118Z" fill="#FF7D7D"/>
<path d="M467 196C467 191.582 470.582 188 475 188C479.418 188 483 191.582 483 196H467ZM475 187C471.685 187 469 184.315 469 181C469 177.685 471.685 175 475 175C478.315 175 481 177.685 481 181C481 184.315 478.315 187 475 187Z" fill="#FF7D7D"/>
<path d="M523 196C523 191.582 526.582 188 531 188C535.418 188 539 191.582 539 196H523ZM531 187C527.685 187 525 184.315 525 181C525 177.685 527.685 175 531 175C534.315 175 537 177.685 537 181C537 184.315 534.315 187 531 187Z" fill="#FF7D7D"/>
<path d="M579 196C579 191.582 582.582 188 587 188C591.418 188 595 191.582 595 196H579ZM587 187C583.685 187 581 184.315 581 181C581 177.685 583.685 175 587 175C590.315 175 593 177.685 593 181C593 184.315 590.315 187 587 187Z" fill="#FF7D7D"/>
<path d="M419 127C419 122.582 422.582 119 427 119C431.418 119 435 122.582 435 127H419ZM427 118C423.685 118 421 115.315 421 112C421 108.685 423.685 106 427 106C430.315 106 433 108.685 433 112C433 115.315 430.315 118 427 118Z" fill="#FF7D7D"/>
<path d="M495 196C495 191.582 498.582 188 503 188C507.418 188 511 191.582 511 196H495ZM503 187C499.685 187 497 184.315 497 181C497 177.685 499.685 175 503 175C506.315 175 509 177.685 509 181C509 184.315 506.315 187 503 187Z" fill="#FF7D7D"/>
<path d="M551 196C551 191.582 554.582 188 559 188C563.418 188 567 191.582 567 196H551ZM559 187C555.685 187 553 184.315 553 181C553 177.685 555.685 175 559 175C562.315 175 565 177.685 565 181C565 184.315 562.315 187 559 187Z" fill="#FF7D7D"/>
<path d="M607 196C607 191.582 610.582 188 615 188C619.418 188 623 191.582 623 196H607ZM615 187C611.685 187 609 184.315 609 181C609 177.685 611.685 175 615 175C618.315 175 621 177.685 621 181C621 184.315 618.315 187 615 187Z" fill="#FF7D7D"/>
</svg>
