<svg width="1113" height="248" viewBox="0 0 1113 248" fill="none" xmlns="http://www.w3.org/2000/svg">
<path d="M133.763 1.87549L267.527 189.144H0L133.763 1.87549Z" fill="#C4174F"/>
<path d="M133.763 1.87549L200.645 95.5098H66.8817L133.763 1.87549Z" fill="#FF4186"/>
<path d="M79.1278 115.85C79.7854 115.85 80.3257 115.781 80.7489 115.645C81.5041 115.391 82.1226 114.902 82.6044 114.18C82.9885 113.6 83.2652 112.858 83.4344 111.953C83.5321 111.413 83.5809 110.911 83.5809 110.449C83.5809 108.672 83.2261 107.292 82.5165 106.309C81.8134 105.326 80.6773 104.834 79.1083 104.834H75.661V115.85H79.1278ZM73.7079 103.164H79.5184C81.4911 103.164 83.021 103.864 84.1083 105.264C85.0783 106.527 85.5634 108.145 85.5634 110.117C85.5634 111.641 85.2769 113.018 84.704 114.248C83.6949 116.423 81.9598 117.51 79.4989 117.51H73.7079V103.164ZM87.8387 107.1H89.6259V117.51H87.8387V107.1ZM87.8387 103.164H89.6259V105.156H87.8387V103.164ZM92.3407 107.051H94.0106V108.857C94.1473 108.506 94.4826 108.079 95.0165 107.578C95.5503 107.07 96.1656 106.816 96.8622 106.816C96.8947 106.816 96.9501 106.82 97.0282 106.826C97.1063 106.833 97.2398 106.846 97.4286 106.865V108.721C97.3244 108.701 97.2268 108.688 97.1356 108.682C97.051 108.675 96.9566 108.672 96.8524 108.672C95.967 108.672 95.2867 108.958 94.8114 109.531C94.3361 110.098 94.0985 110.752 94.0985 111.494V117.51H92.3407V107.051ZM103.307 106.816C104.05 106.816 104.769 106.992 105.466 107.344C106.162 107.689 106.693 108.138 107.057 108.691C107.409 109.219 107.643 109.834 107.761 110.537C107.865 111.019 107.917 111.787 107.917 112.842H100.251C100.283 113.903 100.534 114.756 101.003 115.4C101.472 116.038 102.197 116.357 103.181 116.357C104.099 116.357 104.831 116.055 105.378 115.449C105.69 115.098 105.912 114.691 106.042 114.229H107.77C107.725 114.613 107.572 115.042 107.311 115.518C107.057 115.986 106.771 116.37 106.452 116.67C105.918 117.191 105.257 117.542 104.47 117.725C104.046 117.829 103.568 117.881 103.034 117.881C101.732 117.881 100.628 117.409 99.7235 116.465C98.8186 115.514 98.3661 114.186 98.3661 112.48C98.3661 110.801 98.8218 109.437 99.7333 108.389C100.645 107.34 101.836 106.816 103.307 106.816ZM106.11 111.445C106.039 110.684 105.873 110.075 105.612 109.619C105.13 108.773 104.326 108.35 103.2 108.35C102.393 108.35 101.716 108.643 101.169 109.229C100.622 109.808 100.332 110.547 100.3 111.445H106.11ZM114.118 106.748C115.296 106.748 116.253 107.035 116.989 107.607C117.731 108.18 118.177 109.167 118.327 110.566H116.618C116.514 109.922 116.276 109.388 115.905 108.965C115.534 108.535 114.938 108.32 114.118 108.32C112.998 108.32 112.197 108.867 111.716 109.961C111.403 110.671 111.247 111.546 111.247 112.588C111.247 113.636 111.468 114.518 111.911 115.234C112.354 115.951 113.05 116.309 114.001 116.309C114.73 116.309 115.306 116.087 115.729 115.645C116.159 115.195 116.455 114.583 116.618 113.809H118.327C118.132 115.195 117.643 116.211 116.862 116.855C116.081 117.493 115.082 117.812 113.864 117.812C112.497 117.812 111.406 117.314 110.593 116.318C109.779 115.316 109.372 114.066 109.372 112.568C109.372 110.732 109.818 109.303 110.71 108.281C111.602 107.259 112.738 106.748 114.118 106.748ZM120.436 104.131H122.214V107.051H123.884V108.486H122.214V115.312C122.214 115.677 122.337 115.921 122.585 116.045C122.722 116.117 122.949 116.152 123.268 116.152C123.353 116.152 123.444 116.152 123.542 116.152C123.64 116.146 123.753 116.136 123.884 116.123V117.51C123.682 117.568 123.47 117.611 123.249 117.637C123.034 117.663 122.8 117.676 122.546 117.676C121.725 117.676 121.169 117.467 120.876 117.051C120.583 116.628 120.436 116.081 120.436 115.41V108.486H119.02V107.051H120.436V104.131ZM131.638 103.164H141.589V104.922H133.581V109.277H140.622V110.986H133.581V117.51H131.638V103.164ZM143.493 107.051H145.163V108.857C145.3 108.506 145.635 108.079 146.169 107.578C146.703 107.07 147.318 106.816 148.015 106.816C148.047 106.816 148.102 106.82 148.181 106.826C148.259 106.833 148.392 106.846 148.581 106.865V108.721C148.477 108.701 148.379 108.688 148.288 108.682C148.203 108.675 148.109 108.672 148.005 108.672C147.119 108.672 146.439 108.958 145.964 109.531C145.488 110.098 145.251 110.752 145.251 111.494V117.51H143.493V107.051ZM150.104 107.1H151.891V117.51H150.104V107.1ZM150.104 103.164H151.891V105.156H150.104V103.164ZM158.913 106.816C159.655 106.816 160.375 106.992 161.071 107.344C161.768 107.689 162.298 108.138 162.663 108.691C163.015 109.219 163.249 109.834 163.366 110.537C163.47 111.019 163.522 111.787 163.522 112.842H155.856C155.889 113.903 156.14 114.756 156.608 115.4C157.077 116.038 157.803 116.357 158.786 116.357C159.704 116.357 160.436 116.055 160.983 115.449C161.296 115.098 161.517 114.691 161.647 114.229H163.376C163.33 114.613 163.177 115.042 162.917 115.518C162.663 115.986 162.377 116.37 162.057 116.67C161.524 117.191 160.863 117.542 160.075 117.725C159.652 117.829 159.173 117.881 158.64 117.881C157.337 117.881 156.234 117.409 155.329 116.465C154.424 115.514 153.972 114.186 153.972 112.48C153.972 110.801 154.427 109.437 155.339 108.389C156.25 107.34 157.442 106.816 158.913 106.816ZM161.716 111.445C161.644 110.684 161.478 110.075 161.218 109.619C160.736 108.773 159.932 108.35 158.806 108.35C157.998 108.35 157.321 108.643 156.774 109.229C156.227 109.808 155.938 110.547 155.905 111.445H161.716ZM165.69 107.051H167.36V108.535C167.855 107.923 168.379 107.484 168.932 107.217C169.486 106.95 170.101 106.816 170.778 106.816C172.263 106.816 173.265 107.334 173.786 108.369C174.072 108.936 174.216 109.746 174.216 110.801V117.51H172.429V110.918C172.429 110.28 172.334 109.766 172.145 109.375C171.833 108.724 171.266 108.398 170.446 108.398C170.03 108.398 169.688 108.441 169.421 108.525C168.939 108.669 168.516 108.955 168.151 109.385C167.858 109.73 167.666 110.088 167.575 110.459C167.49 110.824 167.448 111.348 167.448 112.031V117.51H165.69V107.051ZM177.936 112.402C177.936 113.522 178.174 114.46 178.649 115.215C179.125 115.97 179.886 116.348 180.934 116.348C181.748 116.348 182.416 115.999 182.936 115.303C183.464 114.6 183.727 113.594 183.727 112.285C183.727 110.964 183.457 109.987 182.917 109.355C182.377 108.717 181.709 108.398 180.915 108.398C180.03 108.398 179.31 108.737 178.757 109.414C178.21 110.091 177.936 111.087 177.936 112.402ZM180.583 106.865C181.384 106.865 182.054 107.035 182.595 107.373C182.907 107.568 183.262 107.91 183.659 108.398V103.115H185.349V117.51H183.766V116.055C183.356 116.699 182.871 117.165 182.311 117.451C181.752 117.738 181.11 117.881 180.388 117.881C179.222 117.881 178.213 117.393 177.36 116.416C176.507 115.433 176.081 114.128 176.081 112.5C176.081 110.977 176.468 109.658 177.243 108.545C178.024 107.425 179.138 106.865 180.583 106.865ZM189.001 114.229C189.053 114.814 189.199 115.264 189.44 115.576C189.883 116.143 190.651 116.426 191.745 116.426C192.396 116.426 192.969 116.286 193.464 116.006C193.959 115.719 194.206 115.28 194.206 114.688C194.206 114.238 194.007 113.896 193.61 113.662C193.356 113.519 192.855 113.353 192.106 113.164L190.71 112.812C189.818 112.591 189.16 112.344 188.737 112.07C187.982 111.595 187.604 110.938 187.604 110.098C187.604 109.108 187.959 108.307 188.669 107.695C189.385 107.083 190.345 106.777 191.55 106.777C193.125 106.777 194.261 107.24 194.958 108.164C195.394 108.75 195.606 109.382 195.593 110.059H193.932C193.9 109.661 193.76 109.3 193.513 108.975C193.109 108.512 192.409 108.281 191.413 108.281C190.749 108.281 190.244 108.408 189.899 108.662C189.561 108.916 189.391 109.251 189.391 109.668C189.391 110.124 189.616 110.488 190.065 110.762C190.326 110.924 190.71 111.068 191.218 111.191L192.38 111.475C193.643 111.781 194.489 112.077 194.919 112.363C195.602 112.812 195.944 113.519 195.944 114.482C195.944 115.413 195.589 116.217 194.88 116.895C194.177 117.572 193.102 117.91 191.657 117.91C190.101 117.91 188.998 117.559 188.347 116.855C187.702 116.146 187.357 115.27 187.311 114.229H189.001Z" fill="white"/>
<path d="M108.702 137.31V135.669H112.96V131.382H114.63V135.669H118.888V137.31H114.63V141.587H112.96V137.31H108.702ZM121.398 131.685V130.337C122.667 130.214 123.553 130.009 124.054 129.722C124.555 129.429 124.93 128.742 125.177 127.662H126.564V141.587H124.689V131.685H121.398ZM131.241 141.587C131.307 140.383 131.554 139.335 131.984 138.443C132.42 137.551 133.266 136.74 134.523 136.011L136.398 134.927C137.238 134.439 137.827 134.022 138.165 133.677C138.699 133.137 138.966 132.518 138.966 131.822C138.966 131.008 138.722 130.363 138.234 129.888C137.745 129.406 137.094 129.166 136.281 129.166C135.076 129.166 134.243 129.621 133.781 130.533C133.533 131.021 133.396 131.698 133.37 132.564H131.583C131.603 131.347 131.827 130.354 132.257 129.585C133.019 128.231 134.363 127.554 136.29 127.554C137.892 127.554 139.06 127.987 139.796 128.853C140.538 129.719 140.909 130.682 140.909 131.744C140.909 132.863 140.516 133.82 139.728 134.615C139.272 135.077 138.455 135.637 137.277 136.294L135.939 137.037C135.301 137.388 134.799 137.723 134.435 138.042C133.784 138.609 133.374 139.237 133.204 139.927H140.841V141.587H131.241ZM155.382 134.791C156.32 134.791 157.12 135.123 157.784 135.787C158.448 136.451 158.781 137.251 158.781 138.189C158.781 139.126 158.448 139.927 157.784 140.591C157.12 141.255 156.32 141.587 155.382 141.587C154.438 141.587 153.634 141.255 152.97 140.591C152.306 139.927 151.974 139.126 151.974 138.189C151.974 137.251 152.306 136.451 152.97 135.787C153.634 135.123 154.438 134.791 155.382 134.791ZM153.966 127.662H155.05L147.228 141.958H146.144L153.966 127.662ZM145.792 133.443C146.352 133.443 146.827 133.248 147.218 132.857C147.615 132.46 147.814 131.985 147.814 131.431C147.814 130.878 147.615 130.406 147.218 130.015C146.827 129.618 146.352 129.419 145.792 129.419C145.239 129.419 144.764 129.615 144.366 130.005C143.976 130.396 143.781 130.871 143.781 131.431C143.781 131.985 143.976 132.46 144.366 132.857C144.764 133.248 145.239 133.443 145.792 133.443ZM145.792 128.023C146.736 128.023 147.54 128.358 148.204 129.029C148.868 129.693 149.2 130.494 149.2 131.431C149.2 132.369 148.868 133.169 148.204 133.833C147.54 134.498 146.736 134.83 145.792 134.83C144.855 134.83 144.054 134.498 143.39 133.833C142.726 133.169 142.394 132.369 142.394 131.431C142.394 130.494 142.726 129.693 143.39 129.029C144.054 128.358 144.855 128.023 145.792 128.023ZM155.382 140.201C155.935 140.201 156.407 140.005 156.798 139.615C157.195 139.218 157.394 138.742 157.394 138.189C157.394 137.636 157.195 137.164 156.798 136.773C156.407 136.376 155.935 136.177 155.382 136.177C154.822 136.177 154.344 136.376 153.947 136.773C153.556 137.164 153.361 137.636 153.361 138.189C153.361 138.742 153.556 139.218 153.947 139.615C154.344 140.005 154.822 140.201 155.382 140.201Z" fill="white"/>
<path d="M52.1677 181.118C52.1677 175.208 56.9588 170.417 62.8688 170.417C68.7789 170.417 73.5699 175.208 73.5699 181.118H52.1677ZM62.8688 169.079C58.4345 169.079 54.843 165.488 54.843 161.054C54.843 156.619 58.4345 153.028 62.8688 153.028C67.303 153.028 70.8946 156.619 70.8946 161.054C70.8946 165.488 67.303 169.079 62.8688 169.079Z" fill="white"/>
<path d="M52.1677 181.118C52.1677 175.208 56.9588 170.417 62.8688 170.417C68.7789 170.417 73.5699 175.208 73.5699 181.118H52.1677ZM62.8688 169.079C58.4345 169.079 54.843 165.488 54.843 161.054C54.843 156.619 58.4345 153.028 62.8688 153.028C67.303 153.028 70.8946 156.619 70.8946 161.054C70.8946 165.488 67.303 169.079 62.8688 169.079Z" fill="white"/>
<path d="M188.606 181.118C188.606 175.208 193.397 170.417 199.307 170.417C205.217 170.417 210.008 175.208 210.008 181.118H188.606ZM199.307 169.079C194.873 169.079 191.282 165.488 191.282 161.054C191.282 156.619 194.873 153.028 199.307 153.028C203.742 153.028 207.333 156.619 207.333 161.054C207.333 165.488 203.742 169.079 199.307 169.079Z" fill="white"/>
<path d="M188.606 181.118C188.606 175.208 193.397 170.417 199.307 170.417C205.217 170.417 210.008 175.208 210.008 181.118H188.606ZM199.307 169.079C194.873 169.079 191.282 165.488 191.282 161.054C191.282 156.619 194.873 153.028 199.307 153.028C203.742 153.028 207.333 156.619 207.333 161.054C207.333 165.488 203.742 169.079 199.307 169.079Z" fill="white"/>
<path d="M97.6472 181.118C97.6472 175.208 102.438 170.417 108.348 170.417C114.258 170.417 119.049 175.208 119.049 181.118H97.6472ZM108.348 169.079C103.914 169.079 100.322 165.488 100.322 161.054C100.322 156.619 103.914 153.028 108.348 153.028C112.783 153.028 116.374 156.619 116.374 161.054C116.374 165.488 112.783 169.079 108.348 169.079Z" fill="white"/>
<path d="M97.6472 181.118C97.6472 175.208 102.438 170.417 108.348 170.417C114.258 170.417 119.049 175.208 119.049 181.118H97.6472ZM108.348 169.079C103.914 169.079 100.322 165.488 100.322 161.054C100.322 156.619 103.914 153.028 108.348 153.028C112.783 153.028 116.374 156.619 116.374 161.054C116.374 165.488 112.783 169.079 108.348 169.079Z" fill="white"/>
<path d="M143.127 181.118C143.127 175.208 147.918 170.417 153.828 170.417C159.738 170.417 164.529 175.208 164.529 181.118H143.127ZM153.828 169.079C149.394 169.079 145.802 165.488 145.802 161.054C145.802 156.619 149.394 153.028 153.828 153.028C158.262 153.028 161.854 156.619 161.854 161.054C161.854 165.488 158.262 169.079 153.828 169.079Z" fill="white"/>
<path d="M143.127 181.118C143.127 175.208 147.918 170.417 153.828 170.417C159.738 170.417 164.529 175.208 164.529 181.118H143.127ZM153.828 169.079C149.394 169.079 145.802 165.488 145.802 161.054C145.802 156.619 149.394 153.028 153.828 153.028C158.262 153.028 161.854 156.619 161.854 161.054C161.854 165.488 158.262 169.079 153.828 169.079Z" fill="white"/>
<path d="M113.887 30.9321H116.152L120.273 37.8267L124.394 30.9321H126.67L121.25 39.4966V45.2778H119.307V39.4966L113.887 30.9321ZM130.42 44.145C131.585 44.145 132.383 43.7056 132.812 42.8267C133.249 41.9412 133.467 40.9582 133.467 39.8774C133.467 38.9009 133.31 38.1066 132.998 37.4946C132.503 36.5311 131.65 36.0493 130.439 36.0493C129.365 36.0493 128.584 36.4595 128.096 37.2798C127.607 38.1001 127.363 39.0897 127.363 40.2485C127.363 41.3618 127.607 42.2896 128.096 43.0317C128.584 43.7739 129.359 44.145 130.42 44.145ZM130.488 34.5161C131.836 34.5161 132.975 34.9653 133.906 35.8638C134.837 36.7622 135.303 38.0838 135.303 39.8286C135.303 41.5148 134.892 42.908 134.072 44.0083C133.252 45.1086 131.979 45.6587 130.254 45.6587C128.815 45.6587 127.672 45.1737 126.826 44.2036C125.98 43.2271 125.557 41.9185 125.557 40.2778C125.557 38.52 126.002 37.1203 126.894 36.0786C127.786 35.0369 128.984 34.5161 130.488 34.5161ZM139.16 34.8188V41.7622C139.16 42.2961 139.245 42.7323 139.414 43.0708C139.726 43.6958 140.309 44.0083 141.162 44.0083C142.386 44.0083 143.219 43.4614 143.662 42.3677C143.903 41.7817 144.023 40.9777 144.023 39.9556V34.8188H145.781V45.2778H144.121L144.141 43.7349C143.913 44.132 143.629 44.4673 143.291 44.7407C142.62 45.2876 141.807 45.561 140.849 45.561C139.359 45.561 138.343 45.063 137.803 44.0669C137.51 43.533 137.363 42.8201 137.363 41.9282V34.8188H139.16Z" fill="white"/>
<path d="M120.387 84.8086C120.387 78.8985 125.178 74.1075 131.088 74.1075C136.998 74.1075 141.789 78.8985 141.789 84.8086H120.387ZM131.088 72.7699C126.654 72.7699 123.062 69.1783 123.062 64.7441C123.062 60.3098 126.654 56.7183 131.088 56.7183C135.522 56.7183 139.114 60.3098 139.114 64.7441C139.114 69.1783 135.522 72.7699 131.088 72.7699Z" fill="white"/>
<path d="M120.387 84.8086C120.387 78.8985 125.178 74.1075 131.088 74.1075C136.998 74.1075 141.789 78.8985 141.789 84.8086H120.387ZM131.088 72.7699C126.654 72.7699 123.062 69.1783 123.062 64.7441C123.062 60.3098 126.654 56.7183 131.088 56.7183C135.522 56.7183 139.114 60.3098 139.114 64.7441C139.114 69.1783 135.522 72.7699 131.088 72.7699Z" fill="white"/>
<path d="M86.5524 223.551H88.818L92.9391 230.446L97.0602 223.551H99.3356L93.9156 232.116V237.897H91.9723V232.116L86.5524 223.551ZM103.086 236.764C104.251 236.764 105.048 236.325 105.478 235.446C105.914 234.56 106.132 233.577 106.132 232.497C106.132 231.52 105.976 230.726 105.664 230.114C105.169 229.15 104.316 228.668 103.105 228.668C102.031 228.668 101.25 229.079 100.761 229.899C100.273 230.719 100.029 231.709 100.029 232.868C100.029 233.981 100.273 234.909 100.761 235.651C101.25 236.393 102.024 236.764 103.086 236.764ZM103.154 227.135C104.502 227.135 105.641 227.584 106.572 228.483C107.503 229.381 107.968 230.703 107.968 232.448C107.968 234.134 107.558 235.527 106.738 236.627C105.918 237.728 104.645 238.278 102.92 238.278C101.481 238.278 100.338 237.793 99.4918 236.823C98.6455 235.846 98.2223 234.538 98.2223 232.897C98.2223 231.139 98.6683 229.739 99.5602 228.698C100.452 227.656 101.65 227.135 103.154 227.135ZM111.826 227.438V234.381C111.826 234.915 111.91 235.351 112.08 235.69C112.392 236.315 112.975 236.627 113.828 236.627C115.052 236.627 115.885 236.081 116.328 234.987C116.569 234.401 116.689 233.597 116.689 232.575V227.438H118.447V237.897H116.787L116.806 236.354C116.578 236.751 116.295 237.086 115.957 237.36C115.286 237.907 114.472 238.18 113.515 238.18C112.024 238.18 111.009 237.682 110.468 236.686C110.175 236.152 110.029 235.439 110.029 234.547V227.438H111.826ZM121.25 227.438H122.92V229.245C123.056 228.893 123.392 228.467 123.925 227.965C124.459 227.458 125.075 227.204 125.771 227.204C125.804 227.204 125.859 227.207 125.937 227.213C126.015 227.22 126.149 227.233 126.338 227.252V229.108C126.233 229.088 126.136 229.075 126.045 229.069C125.96 229.062 125.866 229.059 125.761 229.059C124.876 229.059 124.196 229.346 123.72 229.918C123.245 230.485 123.007 231.139 123.007 231.881V237.897H121.25V227.438ZM139.17 236.237C139.827 236.237 140.367 236.168 140.791 236.032C141.546 235.778 142.164 235.29 142.646 234.567C143.03 233.987 143.307 233.245 143.476 232.34C143.574 231.8 143.623 231.299 143.623 230.836C143.623 229.059 143.268 227.679 142.558 226.696C141.855 225.713 140.719 225.221 139.15 225.221H135.703V236.237H139.17ZM133.75 223.551H139.56C141.533 223.551 143.063 224.251 144.15 225.651C145.12 226.914 145.605 228.532 145.605 230.504C145.605 232.028 145.319 233.405 144.746 234.635C143.737 236.81 142.002 237.897 139.541 237.897H133.75V223.551ZM152.236 227.204C152.978 227.204 153.698 227.379 154.394 227.731C155.091 228.076 155.621 228.525 155.986 229.079C156.338 229.606 156.572 230.221 156.689 230.924C156.793 231.406 156.845 232.174 156.845 233.229H149.179C149.212 234.29 149.463 235.143 149.931 235.788C150.4 236.426 151.126 236.745 152.109 236.745C153.027 236.745 153.759 236.442 154.306 235.836C154.619 235.485 154.84 235.078 154.97 234.616H156.699C156.653 235 156.5 235.43 156.24 235.905C155.986 236.374 155.7 236.758 155.38 237.057C154.847 237.578 154.186 237.93 153.398 238.112C152.975 238.216 152.496 238.268 151.963 238.268C150.66 238.268 149.557 237.796 148.652 236.852C147.747 235.902 147.295 234.573 147.295 232.868C147.295 231.188 147.75 229.824 148.662 228.776C149.573 227.728 150.765 227.204 152.236 227.204ZM155.039 231.833C154.967 231.071 154.801 230.462 154.541 230.006C154.059 229.16 153.255 228.737 152.129 228.737C151.321 228.737 150.644 229.03 150.097 229.616C149.55 230.195 149.261 230.934 149.228 231.833H155.039ZM163.047 227.135C164.225 227.135 165.182 227.422 165.918 227.995C166.66 228.568 167.106 229.554 167.255 230.954H165.547C165.442 230.309 165.205 229.775 164.834 229.352C164.463 228.922 163.867 228.708 163.047 228.708C161.927 228.708 161.126 229.254 160.644 230.348C160.332 231.058 160.175 231.933 160.175 232.975C160.175 234.023 160.397 234.905 160.839 235.622C161.282 236.338 161.979 236.696 162.929 236.696C163.658 236.696 164.235 236.474 164.658 236.032C165.088 235.583 165.384 234.971 165.547 234.196H167.255C167.06 235.583 166.572 236.598 165.791 237.243C165.009 237.881 164.01 238.2 162.793 238.2C161.425 238.2 160.335 237.702 159.521 236.706C158.707 235.703 158.3 234.453 158.3 232.956C158.3 231.12 158.746 229.691 159.638 228.668C160.53 227.646 161.666 227.135 163.047 227.135ZM168.974 223.551H170.664V231.881L175.175 227.438H177.422L173.418 231.354L177.646 237.897H175.4L172.138 232.624L170.664 233.971V237.897H168.974V223.551Z" fill="white"/>
<path d="M516.098 223.161C517.915 223.161 519.324 223.639 520.327 224.596C521.33 225.553 521.886 226.64 521.997 227.858H520.102C519.887 226.933 519.458 226.201 518.813 225.661C518.175 225.12 517.277 224.85 516.118 224.85C514.705 224.85 513.563 225.348 512.69 226.344C511.824 227.334 511.391 228.854 511.391 230.905C511.391 232.584 511.782 233.948 512.563 234.997C513.351 236.038 514.523 236.559 516.079 236.559C517.511 236.559 518.602 236.009 519.35 234.909C519.747 234.329 520.044 233.568 520.239 232.624H522.134C521.964 234.134 521.404 235.4 520.454 236.422C519.315 237.653 517.778 238.268 515.844 238.268C514.178 238.268 512.778 237.764 511.645 236.754C510.154 235.42 509.409 233.359 509.409 230.573C509.409 228.457 509.969 226.722 511.089 225.368C512.3 223.896 513.969 223.161 516.098 223.161ZM528.423 236.764C529.588 236.764 530.385 236.325 530.815 235.446C531.251 234.56 531.469 233.577 531.469 232.497C531.469 231.52 531.313 230.726 531.001 230.114C530.506 229.15 529.653 228.668 528.442 228.668C527.368 228.668 526.587 229.079 526.098 229.899C525.61 230.719 525.366 231.709 525.366 232.868C525.366 233.981 525.61 234.909 526.098 235.651C526.587 236.393 527.361 236.764 528.423 236.764ZM528.491 227.135C529.839 227.135 530.978 227.584 531.909 228.483C532.84 229.381 533.305 230.703 533.305 232.448C533.305 234.134 532.895 235.527 532.075 236.627C531.255 237.728 529.982 238.278 528.257 238.278C526.818 238.278 525.675 237.793 524.829 236.823C523.983 235.846 523.559 234.538 523.559 232.897C523.559 231.139 524.005 229.739 524.897 228.698C525.789 227.656 526.987 227.135 528.491 227.135ZM535.405 227.438H537.143V228.922C537.56 228.408 537.938 228.034 538.276 227.799C538.856 227.402 539.513 227.204 540.249 227.204C541.082 227.204 541.753 227.409 542.26 227.819C542.547 228.053 542.807 228.398 543.042 228.854C543.432 228.294 543.891 227.881 544.419 227.614C544.946 227.34 545.538 227.204 546.196 227.204C547.602 227.204 548.559 227.711 549.067 228.727C549.341 229.274 549.477 230.01 549.477 230.934V237.897H547.651V230.631C547.651 229.935 547.475 229.456 547.124 229.196C546.779 228.935 546.356 228.805 545.854 228.805C545.164 228.805 544.568 229.036 544.067 229.499C543.572 229.961 543.325 230.732 543.325 231.813V237.897H541.538V231.071C541.538 230.361 541.453 229.844 541.284 229.518C541.017 229.03 540.519 228.786 539.79 228.786C539.126 228.786 538.52 229.043 537.973 229.557C537.433 230.071 537.163 231.002 537.163 232.35V237.897H535.405V227.438ZM556.479 236.715C557.3 236.715 557.98 236.374 558.52 235.69C559.067 235 559.341 233.971 559.341 232.604C559.341 231.771 559.22 231.055 558.979 230.456C558.524 229.303 557.69 228.727 556.479 228.727C555.262 228.727 554.428 229.336 553.979 230.553C553.738 231.204 553.618 232.031 553.618 233.034C553.618 233.841 553.738 234.528 553.979 235.094C554.435 236.175 555.268 236.715 556.479 236.715ZM551.928 227.487H553.637V228.874C553.989 228.398 554.373 228.03 554.79 227.77C555.382 227.379 556.079 227.184 556.88 227.184C558.065 227.184 559.07 227.64 559.897 228.551C560.724 229.456 561.137 230.752 561.137 232.438C561.137 234.717 560.542 236.344 559.35 237.321C558.595 237.939 557.716 238.249 556.714 238.249C555.926 238.249 555.265 238.076 554.731 237.731C554.419 237.536 554.07 237.2 553.686 236.725V242.067H551.928V227.487ZM563.247 223.551H565.005V237.897H563.247V223.551ZM572.007 227.204C572.749 227.204 573.468 227.379 574.165 227.731C574.861 228.076 575.392 228.525 575.757 229.079C576.108 229.606 576.343 230.221 576.46 230.924C576.564 231.406 576.616 232.174 576.616 233.229H568.95C568.983 234.29 569.233 235.143 569.702 235.788C570.171 236.426 570.897 236.745 571.88 236.745C572.798 236.745 573.53 236.442 574.077 235.836C574.389 235.485 574.611 235.078 574.741 234.616H576.469C576.424 235 576.271 235.43 576.01 235.905C575.757 236.374 575.47 236.758 575.151 237.057C574.617 237.578 573.956 237.93 573.169 238.112C572.746 238.216 572.267 238.268 571.733 238.268C570.431 238.268 569.328 237.796 568.423 236.852C567.518 235.902 567.065 234.573 567.065 232.868C567.065 231.188 567.521 229.824 568.432 228.776C569.344 227.728 570.535 227.204 572.007 227.204ZM574.809 231.833C574.738 231.071 574.572 230.462 574.311 230.006C573.83 229.16 573.025 228.737 571.899 228.737C571.092 228.737 570.415 229.03 569.868 229.616C569.321 230.195 569.031 230.934 568.999 231.833H574.809ZM579.135 224.518H580.913V227.438H582.583V228.874H580.913V235.7C580.913 236.064 581.037 236.308 581.284 236.432C581.421 236.504 581.649 236.54 581.968 236.54C582.052 236.54 582.143 236.54 582.241 236.54C582.339 236.533 582.453 236.523 582.583 236.51V237.897C582.381 237.956 582.169 237.998 581.948 238.024C581.733 238.05 581.499 238.063 581.245 238.063C580.425 238.063 579.868 237.855 579.575 237.438C579.282 237.015 579.135 236.468 579.135 235.797V228.874H577.719V227.438H579.135V224.518ZM588.706 227.204C589.448 227.204 590.167 227.379 590.864 227.731C591.561 228.076 592.091 228.525 592.456 229.079C592.807 229.606 593.042 230.221 593.159 230.924C593.263 231.406 593.315 232.174 593.315 233.229H585.649C585.682 234.29 585.932 235.143 586.401 235.788C586.87 236.426 587.596 236.745 588.579 236.745C589.497 236.745 590.229 236.442 590.776 235.836C591.089 235.485 591.31 235.078 591.44 234.616H593.169C593.123 235 592.97 235.43 592.71 235.905C592.456 236.374 592.169 236.758 591.85 237.057C591.316 237.578 590.656 237.93 589.868 238.112C589.445 238.216 588.966 238.268 588.432 238.268C587.13 238.268 586.027 237.796 585.122 236.852C584.217 235.902 583.764 234.573 583.764 232.868C583.764 231.188 584.22 229.824 585.132 228.776C586.043 227.728 587.234 227.204 588.706 227.204ZM591.509 231.833C591.437 231.071 591.271 230.462 591.01 230.006C590.529 229.16 589.725 228.737 588.598 228.737C587.791 228.737 587.114 229.03 586.567 229.616C586.02 230.195 585.731 230.934 585.698 231.833H591.509ZM607.485 223.18C608.833 223.18 609.998 223.441 610.981 223.961C612.407 224.71 613.279 226.022 613.598 227.897H611.675C611.44 226.849 610.955 226.087 610.219 225.612C609.484 225.13 608.556 224.889 607.436 224.889C606.108 224.889 604.988 225.387 604.077 226.383C603.172 227.379 602.719 228.864 602.719 230.836C602.719 232.542 603.094 233.932 603.843 235.006C604.591 236.074 605.812 236.608 607.505 236.608C608.8 236.608 609.871 236.234 610.718 235.485C611.57 234.73 612.007 233.512 612.026 231.833H607.534V230.221H613.833V237.897H612.583L612.114 236.051C611.456 236.774 610.874 237.275 610.366 237.555C609.513 238.037 608.429 238.278 607.114 238.278C605.415 238.278 603.953 237.728 602.729 236.627C601.395 235.247 600.727 233.353 600.727 230.944C600.727 228.542 601.378 226.631 602.68 225.211C603.917 223.857 605.519 223.18 607.485 223.18ZM620.766 236.764C621.932 236.764 622.729 236.325 623.159 235.446C623.595 234.56 623.813 233.577 623.813 232.497C623.813 231.52 623.657 230.726 623.344 230.114C622.85 229.15 621.997 228.668 620.786 228.668C619.712 228.668 618.93 229.079 618.442 229.899C617.954 230.719 617.71 231.709 617.71 232.868C617.71 233.981 617.954 234.909 618.442 235.651C618.93 236.393 619.705 236.764 620.766 236.764ZM620.835 227.135C622.182 227.135 623.322 227.584 624.253 228.483C625.184 229.381 625.649 230.703 625.649 232.448C625.649 234.134 625.239 235.527 624.419 236.627C623.598 237.728 622.326 238.278 620.6 238.278C619.162 238.278 618.019 237.793 617.173 236.823C616.326 235.846 615.903 234.538 615.903 232.897C615.903 231.139 616.349 229.739 617.241 228.698C618.133 227.656 619.331 227.135 620.835 227.135ZM629.096 235.114C629.096 235.622 629.282 236.022 629.653 236.315C630.024 236.608 630.464 236.754 630.971 236.754C631.59 236.754 632.189 236.611 632.768 236.325C633.745 235.849 634.233 235.071 634.233 233.991V232.575C634.018 232.711 633.742 232.825 633.403 232.917C633.065 233.008 632.733 233.073 632.407 233.112L631.343 233.249C630.705 233.333 630.226 233.467 629.907 233.649C629.367 233.955 629.096 234.443 629.096 235.114ZM633.354 231.559C633.758 231.507 634.028 231.338 634.165 231.051C634.243 230.895 634.282 230.67 634.282 230.377C634.282 229.778 634.067 229.346 633.637 229.079C633.214 228.805 632.606 228.668 631.811 228.668C630.893 228.668 630.242 228.916 629.858 229.411C629.643 229.684 629.503 230.091 629.438 230.631H627.798C627.83 229.342 628.247 228.447 629.048 227.946C629.855 227.438 630.789 227.184 631.85 227.184C633.081 227.184 634.08 227.418 634.848 227.887C635.61 228.356 635.991 229.085 635.991 230.075V236.1C635.991 236.282 636.027 236.429 636.098 236.54C636.177 236.65 636.336 236.706 636.577 236.706C636.655 236.706 636.743 236.702 636.841 236.696C636.938 236.683 637.042 236.667 637.153 236.647V237.946C636.88 238.024 636.671 238.073 636.528 238.092C636.385 238.112 636.19 238.122 635.942 238.122C635.337 238.122 634.897 237.907 634.624 237.477C634.481 237.249 634.38 236.927 634.321 236.51C633.963 236.979 633.449 237.386 632.778 237.731C632.108 238.076 631.369 238.249 630.561 238.249C629.591 238.249 628.797 237.956 628.178 237.37C627.566 236.777 627.26 236.038 627.26 235.153C627.26 234.183 627.563 233.431 628.169 232.897C628.774 232.363 629.568 232.034 630.552 231.911L633.354 231.559ZM638.93 223.551H640.688V237.897H638.93V223.551Z" fill="white"/>
<path d="M946.832 223.18C948.179 223.18 949.345 223.441 950.328 223.961C951.754 224.71 952.626 226.022 952.945 227.897H951.021C950.787 226.849 950.302 226.087 949.566 225.612C948.83 225.13 947.903 224.889 946.783 224.889C945.455 224.889 944.335 225.387 943.424 226.383C942.519 227.379 942.066 228.864 942.066 230.836C942.066 232.542 942.441 233.932 943.189 235.006C943.938 236.074 945.159 236.608 946.851 236.608C948.147 236.608 949.218 236.234 950.064 235.485C950.917 234.73 951.353 233.512 951.373 231.833H946.881V230.221H953.179V237.897H951.929L951.461 236.051C950.803 236.774 950.22 237.275 949.713 237.555C948.86 238.037 947.776 238.278 946.461 238.278C944.761 238.278 943.3 237.728 942.076 236.627C940.741 235.247 940.074 233.353 940.074 230.944C940.074 228.542 940.725 226.631 942.027 225.211C943.264 223.857 944.866 223.18 946.832 223.18ZM960.318 227.204C961.06 227.204 961.78 227.379 962.476 227.731C963.173 228.076 963.704 228.525 964.068 229.079C964.42 229.606 964.654 230.221 964.771 230.924C964.875 231.406 964.927 232.174 964.927 233.229H957.261C957.294 234.29 957.545 235.143 958.013 235.788C958.482 236.426 959.208 236.745 960.191 236.745C961.109 236.745 961.842 236.442 962.388 235.836C962.701 235.485 962.922 235.078 963.052 234.616H964.781C964.735 235 964.582 235.43 964.322 235.905C964.068 236.374 963.782 236.758 963.463 237.057C962.929 237.578 962.268 237.93 961.48 238.112C961.057 238.216 960.579 238.268 960.045 238.268C958.743 238.268 957.639 237.796 956.734 236.852C955.829 235.902 955.377 234.573 955.377 232.868C955.377 231.188 955.832 229.824 956.744 228.776C957.655 227.728 958.847 227.204 960.318 227.204ZM963.121 231.833C963.049 231.071 962.883 230.462 962.623 230.006C962.141 229.16 961.337 228.737 960.211 228.737C959.403 228.737 958.726 229.03 958.179 229.616C957.633 230.195 957.343 230.934 957.31 231.833H963.121ZM967.447 224.518H969.224V227.438H970.894V228.874H969.224V235.7C969.224 236.064 969.348 236.308 969.595 236.432C969.732 236.504 969.96 236.54 970.279 236.54C970.364 236.54 970.455 236.54 970.552 236.54C970.65 236.533 970.764 236.523 970.894 236.51V237.897C970.692 237.956 970.481 237.998 970.26 238.024C970.045 238.05 969.81 238.063 969.556 238.063C968.736 238.063 968.179 237.855 967.886 237.438C967.594 237.015 967.447 236.468 967.447 235.797V228.874H966.031V227.438H967.447V224.518ZM985.133 230.124C986.044 230.124 986.763 229.941 987.291 229.577C987.825 229.212 988.092 228.555 988.092 227.604C988.092 226.582 987.72 225.885 986.978 225.514C986.581 225.319 986.051 225.221 985.386 225.221H980.64V230.124H985.133ZM978.697 223.551H985.338C986.431 223.551 987.333 223.711 988.043 224.03C989.39 224.642 990.064 225.771 990.064 227.418C990.064 228.278 989.885 228.981 989.527 229.528C989.176 230.075 988.681 230.514 988.043 230.846C988.603 231.074 989.023 231.374 989.302 231.745C989.589 232.116 989.748 232.718 989.781 233.551L989.849 235.475C989.869 236.022 989.914 236.429 989.986 236.696C990.103 237.152 990.312 237.444 990.611 237.575V237.897H988.228C988.163 237.773 988.111 237.614 988.072 237.418C988.033 237.223 988 236.846 987.974 236.286L987.857 233.893C987.812 232.956 987.463 232.327 986.812 232.008C986.441 231.833 985.858 231.745 985.064 231.745H980.64V237.897H978.697V223.551ZM997.037 227.204C997.779 227.204 998.498 227.379 999.195 227.731C999.892 228.076 1000.42 228.525 1000.79 229.079C1001.14 229.606 1001.37 230.221 1001.49 230.924C1001.59 231.406 1001.65 232.174 1001.65 233.229H993.98C994.013 234.29 994.263 235.143 994.732 235.788C995.201 236.426 995.927 236.745 996.91 236.745C997.828 236.745 998.56 236.442 999.107 235.836C999.42 235.485 999.641 235.078 999.771 234.616H1001.5C1001.45 235 1001.3 235.43 1001.04 235.905C1000.79 236.374 1000.5 236.758 1000.18 237.057C999.648 237.578 998.987 237.93 998.199 238.112C997.776 238.216 997.297 238.268 996.763 238.268C995.461 238.268 994.358 237.796 993.453 236.852C992.548 235.902 992.095 234.573 992.095 232.868C992.095 231.188 992.551 229.824 993.463 228.776C994.374 227.728 995.566 227.204 997.037 227.204ZM999.84 231.833C999.768 231.071 999.602 230.462 999.342 230.006C998.86 229.16 998.056 228.737 996.929 228.737C996.122 228.737 995.445 229.03 994.898 229.616C994.351 230.195 994.062 230.934 994.029 231.833H999.84ZM1004.62 227.438L1006.64 235.68L1008.68 227.438H1010.65L1012.7 235.631L1014.84 227.438H1016.6L1013.56 237.897H1011.73L1009.61 229.801L1007.54 237.897H1005.72L1002.7 227.438H1004.62ZM1019.61 235.114C1019.61 235.622 1019.8 236.022 1020.17 236.315C1020.54 236.608 1020.98 236.754 1021.49 236.754C1022.11 236.754 1022.71 236.611 1023.29 236.325C1024.26 235.849 1024.75 235.071 1024.75 233.991V232.575C1024.54 232.711 1024.26 232.825 1023.92 232.917C1023.58 233.008 1023.25 233.073 1022.93 233.112L1021.86 233.249C1021.22 233.333 1020.74 233.467 1020.43 233.649C1019.89 233.955 1019.61 234.443 1019.61 235.114ZM1023.87 231.559C1024.28 231.507 1024.55 231.338 1024.68 231.051C1024.76 230.895 1024.8 230.67 1024.8 230.377C1024.8 229.778 1024.59 229.346 1024.16 229.079C1023.73 228.805 1023.12 228.668 1022.33 228.668C1021.41 228.668 1020.76 228.916 1020.38 229.411C1020.16 229.684 1020.02 230.091 1019.96 230.631H1018.32C1018.35 229.342 1018.77 228.447 1019.57 227.946C1020.37 227.438 1021.31 227.184 1022.37 227.184C1023.6 227.184 1024.6 227.418 1025.37 227.887C1026.13 228.356 1026.51 229.085 1026.51 230.075V236.1C1026.51 236.282 1026.55 236.429 1026.62 236.54C1026.7 236.65 1026.85 236.706 1027.1 236.706C1027.17 236.706 1027.26 236.702 1027.36 236.696C1027.46 236.683 1027.56 236.667 1027.67 236.647V237.946C1027.4 238.024 1027.19 238.073 1027.05 238.092C1026.9 238.112 1026.71 238.122 1026.46 238.122C1025.86 238.122 1025.42 237.907 1025.14 237.477C1025 237.249 1024.9 236.927 1024.84 236.51C1024.48 236.979 1023.97 237.386 1023.3 237.731C1022.63 238.076 1021.89 238.249 1021.08 238.249C1020.11 238.249 1019.32 237.956 1018.7 237.37C1018.09 236.777 1017.78 236.038 1017.78 235.153C1017.78 234.183 1018.08 233.431 1018.69 232.897C1019.29 232.363 1020.09 232.034 1021.07 231.911L1023.87 231.559ZM1029.45 227.438H1031.12V229.245C1031.26 228.893 1031.59 228.467 1032.12 227.965C1032.66 227.458 1033.27 227.204 1033.97 227.204C1034 227.204 1034.06 227.207 1034.14 227.213C1034.21 227.22 1034.35 227.233 1034.54 227.252V229.108C1034.43 229.088 1034.34 229.075 1034.24 229.069C1034.16 229.062 1034.06 229.059 1033.96 229.059C1033.08 229.059 1032.39 229.346 1031.92 229.918C1031.44 230.485 1031.21 231.139 1031.21 231.881V237.897H1029.45V227.438ZM1037.17 232.79C1037.17 233.909 1037.41 234.847 1037.89 235.602C1038.36 236.357 1039.12 236.735 1040.17 236.735C1040.99 236.735 1041.65 236.387 1042.17 235.69C1042.7 234.987 1042.96 233.981 1042.96 232.672C1042.96 231.351 1042.69 230.374 1042.15 229.743C1041.61 229.105 1040.95 228.786 1040.15 228.786C1039.27 228.786 1038.55 229.124 1037.99 229.801C1037.45 230.478 1037.17 231.474 1037.17 232.79ZM1039.82 227.252C1040.62 227.252 1041.29 227.422 1041.83 227.76C1042.14 227.956 1042.5 228.297 1042.9 228.786V223.502H1044.59V237.897H1043V236.442C1042.59 237.086 1042.11 237.552 1041.55 237.838C1040.99 238.125 1040.35 238.268 1039.62 238.268C1038.46 238.268 1037.45 237.78 1036.6 236.803C1035.74 235.82 1035.32 234.515 1035.32 232.887C1035.32 231.364 1035.71 230.045 1036.48 228.932C1037.26 227.812 1038.37 227.252 1039.82 227.252ZM1048.24 234.616C1048.29 235.202 1048.44 235.651 1048.68 235.963C1049.12 236.53 1049.89 236.813 1050.98 236.813C1051.63 236.813 1052.21 236.673 1052.7 236.393C1053.2 236.107 1053.44 235.667 1053.44 235.075C1053.44 234.625 1053.24 234.284 1052.85 234.049C1052.59 233.906 1052.09 233.74 1051.34 233.551L1049.95 233.2C1049.06 232.978 1048.4 232.731 1047.97 232.458C1047.22 231.982 1046.84 231.325 1046.84 230.485C1046.84 229.495 1047.2 228.694 1047.91 228.083C1048.62 227.471 1049.58 227.165 1050.79 227.165C1052.36 227.165 1053.5 227.627 1054.2 228.551C1054.63 229.137 1054.84 229.769 1054.83 230.446H1053.17C1053.14 230.049 1053 229.687 1052.75 229.362C1052.35 228.9 1051.65 228.668 1050.65 228.668C1049.99 228.668 1049.48 228.795 1049.14 229.049C1048.8 229.303 1048.63 229.639 1048.63 230.055C1048.63 230.511 1048.85 230.875 1049.3 231.149C1049.56 231.312 1049.95 231.455 1050.45 231.579L1051.62 231.862C1052.88 232.168 1053.73 232.464 1054.16 232.75C1054.84 233.2 1055.18 233.906 1055.18 234.87C1055.18 235.801 1054.83 236.605 1054.12 237.282C1053.41 237.959 1052.34 238.297 1050.89 238.297C1049.34 238.297 1048.23 237.946 1047.58 237.243C1046.94 236.533 1046.59 235.657 1046.55 234.616H1048.24Z" fill="white"/>
<path opacity="0.7" d="M511.885 137.035V135.688C513.155 135.564 514.04 135.359 514.542 135.072C515.043 134.779 515.417 134.092 515.665 133.012H517.051V146.938H515.176V137.035H511.885ZM523.575 143.373C523.692 144.376 524.157 145.069 524.971 145.453C525.388 145.648 525.87 145.746 526.417 145.746C527.458 145.746 528.23 145.414 528.731 144.75C529.232 144.086 529.483 143.35 529.483 142.543C529.483 141.566 529.183 140.811 528.584 140.277C527.992 139.743 527.279 139.477 526.446 139.477C525.84 139.477 525.319 139.594 524.883 139.828C524.454 140.062 524.086 140.388 523.78 140.805L522.256 140.717L523.321 133.188H530.586V134.887H524.639L524.043 138.773C524.369 138.526 524.678 138.34 524.971 138.217C525.492 138.002 526.094 137.895 526.778 137.895C528.06 137.895 529.148 138.308 530.04 139.135C530.931 139.962 531.377 141.01 531.377 142.279C531.377 143.601 530.967 144.766 530.147 145.775C529.333 146.785 528.031 147.289 526.241 147.289C525.101 147.289 524.092 146.97 523.213 146.332C522.341 145.688 521.853 144.701 521.749 143.373H523.575ZM533.897 148.979C534.346 148.9 534.662 148.585 534.844 148.031C534.942 147.738 534.991 147.455 534.991 147.182C534.991 147.136 534.987 147.094 534.981 147.055C534.981 147.022 534.974 146.983 534.961 146.938H533.897V144.809H535.987V146.781C535.987 147.556 535.831 148.236 535.518 148.822C535.206 149.408 534.665 149.77 533.897 149.906V148.979ZM543.213 132.953C545.023 132.953 546.332 133.699 547.139 135.189C547.764 136.342 548.077 137.921 548.077 139.926C548.077 141.827 547.793 143.399 547.227 144.643C546.407 146.426 545.066 147.318 543.204 147.318C541.524 147.318 540.274 146.589 539.454 145.131C538.77 143.913 538.428 142.279 538.428 140.229C538.428 138.64 538.633 137.276 539.043 136.137C539.812 134.014 541.202 132.953 543.213 132.953ZM543.194 145.717C544.105 145.717 544.831 145.313 545.372 144.506C545.912 143.699 546.182 142.195 546.182 139.994C546.182 138.406 545.987 137.1 545.596 136.078C545.206 135.049 544.447 134.535 543.321 134.535C542.286 134.535 541.527 135.023 541.045 136C540.57 136.97 540.333 138.402 540.333 140.297C540.333 141.723 540.486 142.868 540.792 143.734C541.26 145.056 542.061 145.717 543.194 145.717ZM554.346 132.953C556.156 132.953 557.465 133.699 558.272 135.189C558.897 136.342 559.209 137.921 559.209 139.926C559.209 141.827 558.926 143.399 558.36 144.643C557.54 146.426 556.198 147.318 554.336 147.318C552.657 147.318 551.407 146.589 550.586 145.131C549.903 143.913 549.561 142.279 549.561 140.229C549.561 138.64 549.766 137.276 550.176 136.137C550.944 134.014 552.334 132.953 554.346 132.953ZM554.327 145.717C555.238 145.717 555.964 145.313 556.504 144.506C557.045 143.699 557.315 142.195 557.315 139.994C557.315 138.406 557.12 137.1 556.729 136.078C556.338 135.049 555.58 134.535 554.454 134.535C553.418 134.535 552.66 135.023 552.178 136C551.703 136.97 551.465 138.402 551.465 140.297C551.465 141.723 551.618 142.868 551.924 143.734C552.393 145.056 553.194 145.717 554.327 145.717ZM565.479 132.953C567.289 132.953 568.597 133.699 569.405 135.189C570.03 136.342 570.342 137.921 570.342 139.926C570.342 141.827 570.059 143.399 569.493 144.643C568.672 146.426 567.331 147.318 565.469 147.318C563.79 147.318 562.54 146.589 561.719 145.131C561.036 143.913 560.694 142.279 560.694 140.229C560.694 138.64 560.899 137.276 561.309 136.137C562.077 134.014 563.467 132.953 565.479 132.953ZM565.459 145.717C566.371 145.717 567.097 145.313 567.637 144.506C568.178 143.699 568.448 142.195 568.448 139.994C568.448 138.406 568.252 137.1 567.862 136.078C567.471 135.049 566.713 134.535 565.586 134.535C564.551 134.535 563.793 135.023 563.311 136C562.836 136.97 562.598 138.402 562.598 140.297C562.598 141.723 562.751 142.868 563.057 143.734C563.526 145.056 564.327 145.717 565.459 145.717ZM582.735 145.922C583.848 145.87 584.616 145.463 585.04 144.701C585.261 144.311 585.372 143.858 585.372 143.344C585.372 142.53 585.072 141.911 584.473 141.488C584.128 141.241 583.549 141.007 582.735 140.785V145.922ZM579.424 136.498C579.424 137.143 579.636 137.647 580.059 138.012C580.489 138.376 581.065 138.63 581.788 138.773V134.184C580.935 134.216 580.326 134.477 579.961 134.965C579.603 135.453 579.424 135.964 579.424 136.498ZM577.667 136.615C577.667 135.626 578.028 134.734 578.75 133.939C579.48 133.145 580.499 132.742 581.807 132.729V131.43H582.735V132.709C584.03 132.8 585.023 133.184 585.713 133.861C586.41 134.532 586.775 135.421 586.807 136.527H585.098C585.053 136.033 584.919 135.606 584.698 135.248C584.288 134.59 583.633 134.245 582.735 134.213V138.959C584.245 139.382 585.271 139.779 585.811 140.15C586.69 140.762 587.129 141.667 587.129 142.865C587.129 144.597 586.566 145.827 585.44 146.557C584.815 146.96 583.913 147.227 582.735 147.357V149.252H581.807V147.357C579.913 147.234 578.627 146.563 577.95 145.346C577.579 144.688 577.393 143.799 577.393 142.68H579.122C579.174 143.572 579.314 144.223 579.542 144.633C579.945 145.368 580.694 145.782 581.788 145.873V140.551C580.381 140.284 579.343 139.838 578.672 139.213C578.002 138.588 577.667 137.722 577.667 136.615ZM589.424 132.592H591.368V145.229H598.633V146.938H589.424V132.592ZM606.749 132.201C609.281 132.201 611.156 133.015 612.374 134.643C613.324 135.912 613.799 137.536 613.799 139.516C613.799 141.658 613.256 143.438 612.168 144.857C610.892 146.524 609.073 147.357 606.709 147.357C604.502 147.357 602.767 146.628 601.504 145.17C600.378 143.764 599.815 141.986 599.815 139.838C599.815 137.898 600.297 136.238 601.26 134.857C602.497 133.087 604.327 132.201 606.749 132.201ZM606.944 145.619C608.656 145.619 609.893 145.007 610.655 143.783C611.423 142.553 611.807 141.14 611.807 139.545C611.807 137.859 611.364 136.501 610.479 135.473C609.6 134.444 608.396 133.93 606.866 133.93C605.381 133.93 604.17 134.441 603.233 135.463C602.295 136.479 601.827 137.979 601.827 139.965C601.827 141.553 602.227 142.895 603.028 143.988C603.835 145.076 605.14 145.619 606.944 145.619ZM617.256 132.592L621.377 144.809L625.45 132.592H627.627L622.393 146.938H620.333L615.108 132.592H617.256ZM629.649 132.592H640.108V134.35H631.543V138.705H639.463V140.365H631.543V145.229H640.254V146.938H629.649V132.592Z" fill="white"/>
<rect x="428.712" y="80.1268" width="295.617" height="30.7656" rx="15.3828" fill="#8A002D" stroke="#A0112B" stroke-width="1.33763"/>
<rect x="429.38" y="80.7959" width="236.761" height="29.4279" rx="14.714" fill="url(#paint0_linear_733_896)"/>
<rect x="429.38" y="80.7959" width="236.761" height="29.4279" rx="14.714" fill="url(#paint1_linear_733_896)" fill-opacity="0.2"/>
<path d="M885.513 189.144V30.0613L928.986 1.87549H1070.87L1111 30.0613V189.144H885.513Z" fill="white"/>
<path d="M885.513 189.144V30.0613L928.986 1.87549H1070.87L1111 30.0613V189.144H885.513Z" fill="url(#paint2_linear_733_896)"/>
<path d="M885.513 189.144V30.0613L928.986 1.87549H1070.87L1111 30.0613V189.144H885.513Z" fill="url(#paint3_linear_733_896)" fill-opacity="0.5"/>
<path d="M885.513 30.0613V189.144H1111V30.0613M885.513 30.0613L928.986 1.87549H1070.87L1111 30.0613M885.513 30.0613H1111" stroke="white" stroke-opacity="0.5" stroke-width="2.67527"/>
<path d="M885.513 30.0613V189.144H1111V30.0613M885.513 30.0613L928.986 1.87549H1070.87L1111 30.0613M885.513 30.0613H1111" stroke="url(#paint4_linear_733_896)" stroke-opacity="0.2" stroke-width="2.67527"/>
<path d="M1050.42 16.2074C1050.42 16.4839 1050.29 16.9024 1049.72 17.4693C1049.14 18.0389 1048.22 18.6526 1046.91 19.277C1044.29 20.5228 1040.43 21.6804 1035.55 22.6657C1025.8 24.6318 1012.28 25.8575 997.301 25.8575C982.323 25.8575 968.801 24.6318 959.056 22.6657C954.173 21.6804 950.308 20.5228 947.696 19.277C946.387 18.6526 945.464 18.0389 944.886 17.4693C944.311 16.9024 944.178 16.4839 944.178 16.2074C944.178 15.931 944.311 15.5125 944.886 14.9455C945.464 14.3759 946.387 13.7623 947.696 13.1378C950.308 11.892 954.173 10.7344 959.056 9.74916C968.801 7.78309 982.323 6.55736 997.301 6.55736C1012.28 6.55736 1025.8 7.78309 1035.55 9.74916C1040.43 10.7344 1044.29 11.892 1046.91 13.1378C1048.22 13.7623 1049.14 14.3759 1049.72 14.9455C1050.29 15.5125 1050.42 15.931 1050.42 16.2074Z" fill="#85002B"/>
<path d="M1050.42 16.2074C1050.42 16.4839 1050.29 16.9024 1049.72 17.4693C1049.14 18.0389 1048.22 18.6526 1046.91 19.277C1044.29 20.5228 1040.43 21.6804 1035.55 22.6657C1025.8 24.6318 1012.28 25.8575 997.301 25.8575C982.323 25.8575 968.801 24.6318 959.056 22.6657C954.173 21.6804 950.308 20.5228 947.696 19.277C946.387 18.6526 945.464 18.0389 944.886 17.4693C944.311 16.9024 944.178 16.4839 944.178 16.2074C944.178 15.931 944.311 15.5125 944.886 14.9455C945.464 14.3759 946.387 13.7623 947.696 13.1378C950.308 11.892 954.173 10.7344 959.056 9.74916C968.801 7.78309 982.323 6.55736 997.301 6.55736C1012.28 6.55736 1025.8 7.78309 1035.55 9.74916C1040.43 10.7344 1044.29 11.892 1046.91 13.1378C1048.22 13.7623 1049.14 14.3759 1049.72 14.9455C1050.29 15.5125 1050.42 15.931 1050.42 16.2074Z" stroke="url(#paint5_linear_733_896)" stroke-width="2.67527"/>
<path d="M1050.42 16.2074C1050.42 16.4839 1050.29 16.9024 1049.72 17.4693C1049.14 18.0389 1048.22 18.6526 1046.91 19.277C1044.29 20.5228 1040.43 21.6804 1035.55 22.6657C1025.8 24.6318 1012.28 25.8575 997.301 25.8575C982.323 25.8575 968.801 24.6318 959.056 22.6657C954.173 21.6804 950.308 20.5228 947.696 19.277C946.387 18.6526 945.464 18.0389 944.886 17.4693C944.311 16.9024 944.178 16.4839 944.178 16.2074C944.178 15.931 944.311 15.5125 944.886 14.9455C945.464 14.3759 946.387 13.7623 947.696 13.1378C950.308 11.892 954.173 10.7344 959.056 9.74916C968.801 7.78309 982.323 6.55736 997.301 6.55736C1012.28 6.55736 1025.8 7.78309 1035.55 9.74916C1040.43 10.7344 1044.29 11.892 1046.91 13.1378C1048.22 13.7623 1049.14 14.3759 1049.72 14.9455C1050.29 15.5125 1050.42 15.931 1050.42 16.2074Z" stroke="white" stroke-opacity="0.7" stroke-width="2.67527"/>
<path d="M947.452 103.164H949.395V115.801H956.661V117.51H947.452V103.164ZM960.108 107.051V113.994C960.108 114.528 960.193 114.964 960.362 115.303C960.674 115.928 961.257 116.24 962.11 116.24C963.334 116.24 964.167 115.693 964.61 114.6C964.851 114.014 964.971 113.21 964.971 112.188V107.051H966.729V117.51H965.069L965.088 115.967C964.861 116.364 964.577 116.699 964.239 116.973C963.568 117.52 962.754 117.793 961.797 117.793C960.306 117.793 959.291 117.295 958.75 116.299C958.458 115.765 958.311 115.052 958.311 114.16V107.051H960.108ZM973.516 106.748C974.694 106.748 975.652 107.035 976.387 107.607C977.129 108.18 977.575 109.167 977.725 110.566H976.016C975.912 109.922 975.674 109.388 975.303 108.965C974.932 108.535 974.336 108.32 973.516 108.32C972.396 108.32 971.596 108.867 971.114 109.961C970.801 110.671 970.645 111.546 970.645 112.588C970.645 113.636 970.866 114.518 971.309 115.234C971.752 115.951 972.448 116.309 973.399 116.309C974.128 116.309 974.704 116.087 975.127 115.645C975.557 115.195 975.853 114.583 976.016 113.809H977.725C977.53 115.195 977.042 116.211 976.26 116.855C975.479 117.493 974.48 117.812 973.262 117.812C971.895 117.812 970.805 117.314 969.991 116.318C969.177 115.316 968.77 114.066 968.77 112.568C968.77 110.732 969.216 109.303 970.108 108.281C971 107.259 972.136 106.748 973.516 106.748ZM979.444 103.164H981.133V111.494L985.645 107.051H987.891L983.887 110.967L988.116 117.51H985.87L982.608 112.236L981.133 113.584V117.51H979.444V103.164ZM996.016 107.051H997.959C997.712 107.721 997.162 109.251 996.309 111.641C995.671 113.438 995.137 114.902 994.708 116.035C993.692 118.704 992.976 120.332 992.559 120.918C992.142 121.504 991.426 121.797 990.411 121.797C990.163 121.797 989.971 121.787 989.834 121.768C989.704 121.748 989.542 121.712 989.346 121.66V120.059C989.652 120.143 989.874 120.195 990.01 120.215C990.147 120.234 990.267 120.244 990.372 120.244C990.697 120.244 990.935 120.189 991.084 120.078C991.241 119.974 991.371 119.844 991.475 119.688C991.508 119.635 991.625 119.368 991.827 118.887C992.028 118.405 992.175 118.047 992.266 117.812L988.399 107.051H990.391L993.194 115.566L996.016 107.051ZM1010.79 115.85C1011.45 115.85 1011.99 115.781 1012.41 115.645C1013.17 115.391 1013.79 114.902 1014.27 114.18C1014.65 113.6 1014.93 112.858 1015.1 111.953C1015.2 111.413 1015.24 110.911 1015.24 110.449C1015.24 108.672 1014.89 107.292 1014.18 106.309C1013.48 105.326 1012.34 104.834 1010.77 104.834H1007.32V115.85H1010.79ZM1005.37 103.164H1011.18C1013.15 103.164 1014.68 103.864 1015.77 105.264C1016.74 106.527 1017.23 108.145 1017.23 110.117C1017.23 111.641 1016.94 113.018 1016.37 114.248C1015.36 116.423 1013.62 117.51 1011.16 117.51H1005.37V103.164ZM1019.55 107.051H1021.22V108.857C1021.36 108.506 1021.69 108.079 1022.23 107.578C1022.76 107.07 1023.38 106.816 1024.07 106.816C1024.11 106.816 1024.16 106.82 1024.24 106.826C1024.32 106.833 1024.45 106.846 1024.64 106.865V108.721C1024.53 108.701 1024.44 108.688 1024.35 108.682C1024.26 108.675 1024.17 108.672 1024.06 108.672C1023.18 108.672 1022.5 108.958 1022.02 109.531C1021.55 110.098 1021.31 110.752 1021.31 111.494V117.51H1019.55V107.051ZM1027.51 114.727C1027.51 115.234 1027.7 115.635 1028.07 115.928C1028.44 116.221 1028.88 116.367 1029.39 116.367C1030 116.367 1030.6 116.224 1031.18 115.938C1032.16 115.462 1032.65 114.684 1032.65 113.604V112.188C1032.43 112.324 1032.16 112.438 1031.82 112.529C1031.48 112.62 1031.15 112.686 1030.82 112.725L1029.76 112.861C1029.12 112.946 1028.64 113.079 1028.32 113.262C1027.78 113.568 1027.51 114.056 1027.51 114.727ZM1031.77 111.172C1032.17 111.12 1032.44 110.951 1032.58 110.664C1032.66 110.508 1032.7 110.283 1032.7 109.99C1032.7 109.391 1032.48 108.958 1032.05 108.691C1031.63 108.418 1031.02 108.281 1030.23 108.281C1029.31 108.281 1028.66 108.529 1028.27 109.023C1028.06 109.297 1027.92 109.704 1027.85 110.244H1026.21C1026.24 108.955 1026.66 108.06 1027.46 107.559C1028.27 107.051 1029.2 106.797 1030.26 106.797C1031.49 106.797 1032.49 107.031 1033.26 107.5C1034.02 107.969 1034.4 108.698 1034.4 109.688V115.713C1034.4 115.895 1034.44 116.042 1034.51 116.152C1034.59 116.263 1034.75 116.318 1034.99 116.318C1035.07 116.318 1035.16 116.315 1035.25 116.309C1035.35 116.296 1035.46 116.279 1035.57 116.26V117.559C1035.29 117.637 1035.09 117.686 1034.94 117.705C1034.8 117.725 1034.6 117.734 1034.36 117.734C1033.75 117.734 1033.31 117.52 1033.04 117.09C1032.89 116.862 1032.79 116.54 1032.73 116.123C1032.38 116.592 1031.86 116.999 1031.19 117.344C1030.52 117.689 1029.78 117.861 1028.98 117.861C1028.01 117.861 1027.21 117.568 1026.59 116.982C1025.98 116.39 1025.67 115.651 1025.67 114.766C1025.67 113.796 1025.98 113.044 1026.58 112.51C1027.19 111.976 1027.98 111.647 1028.97 111.523L1031.77 111.172ZM1038.11 107.051L1040.12 115.293L1042.16 107.051H1044.13L1046.18 115.244L1048.32 107.051H1050.08L1047.04 117.51H1045.22L1043.09 109.414L1041.03 117.51H1039.2L1036.18 107.051H1038.11Z" fill="white"/>
<path d="M305.463 71.4728L300.968 68.7573V95.0853V121.413L304.731 119.393C323.028 109.569 343.472 104.428 364.24 104.428V122.263L393.965 97.2086L364.24 71.9422V89.9896C343.451 88.5944 323.298 82.2454 305.463 71.4728Z" fill="url(#paint6_linear_733_896)"/>
<path d="M762.934 71.4728L758.438 68.7573V95.0853V121.413L762.201 119.393C780.498 109.569 800.943 104.428 821.71 104.428V122.263L851.435 97.2086L821.71 71.9422V89.9896C800.921 88.5944 780.768 82.2454 762.934 71.4728Z" fill="url(#paint7_linear_733_896)"/>
<defs>
<linearGradient id="paint0_linear_733_896" x1="395.5" y1="56" x2="666" y2="121.5" gradientUnits="userSpaceOnUse">
<stop stop-color="#FF2B70"/>
<stop offset="1" stop-color="#BA003D"/>
</linearGradient>
<linearGradient id="paint1_linear_733_896" x1="578" y1="132.5" x2="429" y2="46.5" gradientUnits="userSpaceOnUse">
<stop stop-color="#BE0000" stop-opacity="0"/>
<stop offset="1" stop-color="#FF6B00"/>
</linearGradient>
<linearGradient id="paint2_linear_733_896" x1="897.5" y1="-13.5" x2="1111" y2="189" gradientUnits="userSpaceOnUse">
<stop stop-color="#FF418A"/>
<stop offset="1" stop-color="#A70036"/>
</linearGradient>
<linearGradient id="paint3_linear_733_896" x1="1111" y1="113" x2="886" y2="54" gradientUnits="userSpaceOnUse">
<stop stop-color="#DB4C50" stop-opacity="0"/>
<stop offset="1" stop-color="#FF9212"/>
</linearGradient>
<linearGradient id="paint4_linear_733_896" x1="918.5" y1="-11.5" x2="1111" y2="189" gradientUnits="userSpaceOnUse">
<stop stop-color="#FF8B20"/>
<stop offset="1" stop-color="#E82B2B"/>
</linearGradient>
<linearGradient id="paint5_linear_733_896" x1="952.209" y1="6.39698" x2="965.169" y2="52.4155" gradientUnits="userSpaceOnUse">
<stop stop-color="#F151A0"/>
<stop offset="1" stop-color="#7857FF"/>
</linearGradient>
<linearGradient id="paint6_linear_733_896" x1="281.5" y1="96" x2="391.629" y2="95.51" gradientUnits="userSpaceOnUse">
<stop stop-color="#E04563" stop-opacity="0"/>
<stop offset="1" stop-color="#87002C"/>
</linearGradient>
<linearGradient id="paint7_linear_733_896" x1="758" y1="96" x2="849.1" y2="95.51" gradientUnits="userSpaceOnUse">
<stop stop-color="#E04563" stop-opacity="0"/>
<stop offset="1" stop-color="#87002C"/>
</linearGradient>
</defs>
</svg>
