<svg width="200" height="200" viewBox="0 0 200 200" fill="none" xmlns="http://www.w3.org/2000/svg">
<path fill-rule="evenodd" clip-rule="evenodd" d="M104.987 31.8128C101.882 30.1034 98.118 30.1034 95.013 31.8128L42.2744 60.8459C38.9719 62.6639 36.9205 66.135 36.9205 69.9048V130.095C36.9205 133.865 38.9719 137.336 42.2744 139.154L95.013 168.187C98.118 169.897 101.882 169.897 104.987 168.187L157.726 139.154C161.028 137.336 163.08 133.865 163.08 130.095V69.9048C163.08 66.135 161.028 62.6639 157.726 60.8459L104.987 31.8128ZM180.659 59.5152C180.659 55.7454 178.608 52.2743 175.305 50.4562L104.987 11.7454C101.882 10.0361 98.118 10.0361 95.013 11.7454L24.6948 50.4562C21.3924 52.2743 19.3409 55.7454 19.3409 59.5152V140.485C19.3409 144.255 21.3924 147.726 24.6948 149.544L95.013 188.255C98.118 189.964 101.882 189.964 104.987 188.255L175.305 149.544C178.608 147.726 180.659 144.255 180.659 140.485V59.5152Z" fill="url(#paint0_linear_108_140)"/>
<path d="M97.2223 150.837V141.948C86.1107 140.837 76.1103 136.392 67.2211 128.614L76.1103 118.058C83.055 123.892 89.9998 127.503 97.2223 128.614V105.002C88.0552 102.78 81.3883 100.002 76.9437 96.3907C72.7768 92.7795 70.5545 87.5015 70.5545 80.5568C70.5545 73.612 73.0546 67.7785 78.0548 63.3339C83.055 58.8892 89.4442 56.3891 97.2223 56.1114V50H105V56.1114C113.89 56.6669 122.501 59.7226 130.279 65.2784L122.223 76.3899C116.945 72.5009 111.112 70.2786 104.723 69.4452V92.2239H105.556C115.001 94.4462 121.668 97.5019 126.112 101.113C130.557 104.724 132.779 110.28 132.779 117.225C132.779 124.447 130.279 130.003 125.279 134.448C120.279 138.892 113.612 141.393 105.278 141.67V150.282H97.2223V150.837ZM88.6108 72.5009C86.6663 74.4454 85.5551 76.6677 85.5551 79.1678C85.5551 81.9457 86.3885 83.8902 88.0552 85.557C89.722 87.2237 92.7776 88.6126 97.2223 90.0016V68.8896C93.611 69.723 90.8331 70.5564 88.6108 72.5009ZM114.445 125.836C116.667 123.892 117.779 121.67 117.779 118.892C117.779 116.114 116.945 113.891 115.001 112.225C113.334 110.558 109.723 108.891 105 107.502V129.448C109.167 128.892 112.223 127.503 114.445 125.836Z" fill="url(#paint1_linear_108_140)"/>
<defs>
<linearGradient id="paint0_linear_108_140" x1="19.3409" y1="191" x2="213.449" y2="51.3081" gradientUnits="userSpaceOnUse">
<stop stop-color="#F151A0"/>
<stop offset="1" stop-color="#7857FF"/>
</linearGradient>
<linearGradient id="paint1_linear_108_140" x1="67.2211" y1="150.837" x2="160.866" y2="101.405" gradientUnits="userSpaceOnUse">
<stop stop-color="#F151A0"/>
<stop offset="1" stop-color="#7857FF"/>
</linearGradient>
</defs>
</svg>
