<svg width="18" height="18" viewBox="0 0 18 18" fill="none" xmlns="http://www.w3.org/2000/svg">
<path d="M8.33196 1.30902C8.61032 0.763582 9.38968 0.763582 9.66804 1.30902L11.5245 4.94677C11.6335 5.16031 11.838 5.30888 12.0747 5.34654L16.1081 5.98802C16.7129 6.0842 16.9537 6.82542 16.521 7.2587L13.635 10.1484C13.4656 10.3181 13.3874 10.5585 13.4248 10.7953L14.0611 14.8295C14.1565 15.4344 13.526 15.8925 12.9802 15.6148L9.34006 13.763C9.12638 13.6543 8.87362 13.6543 8.65994 13.763L5.01981 15.6148C4.47401 15.8925 3.8435 15.4344 3.9389 14.8295L4.57521 10.7953C4.61256 10.5585 4.53445 10.3181 4.36504 10.1484L1.47901 7.2587C1.04628 6.82542 1.28712 6.0842 1.89188 5.98802L5.92526 5.34654C6.16203 5.30888 6.36652 5.16031 6.4755 4.94677L8.33196 1.30902Z" fill="#FFD100"/>
<mask id="mask0_251_2136" style="mask-type:alpha" maskUnits="userSpaceOnUse" x="1" y="0" width="16" height="16">
<path d="M8.33196 1.30902C8.61032 0.763582 9.38968 0.763582 9.66804 1.30902L11.5245 4.94677C11.6335 5.16031 11.838 5.30888 12.0747 5.34654L16.1081 5.98802C16.7129 6.0842 16.9537 6.82542 16.521 7.2587L13.635 10.1484C13.4656 10.3181 13.3874 10.5585 13.4248 10.7953L14.0611 14.8295C14.1565 15.4344 13.526 15.8925 12.9802 15.6148L9.34006 13.763C9.12638 13.6543 8.87362 13.6543 8.65994 13.763L5.01981 15.6148C4.47401 15.8925 3.8435 15.4344 3.9389 14.8295L4.57521 10.7953C4.61256 10.5585 4.53445 10.3181 4.36504 10.1484L1.47901 7.2587C1.04628 6.82542 1.28712 6.0842 1.89188 5.98802L5.92526 5.34654C6.16203 5.30888 6.36652 5.16031 6.4755 4.94677L8.33196 1.30902Z" fill="#FFD100"/>
</mask>
<g mask="url(#mask0_251_2136)">
<ellipse cx="6.735" cy="5.23258" rx="6.89807" ry="4.5" transform="rotate(-32.1821 6.735 5.23258)" fill="url(#paint0_linear_251_2136)"/>
</g>
<path d="M8.66598 1.47948C8.80516 1.20676 9.19484 1.20676 9.33402 1.47948L11.1905 5.11723C11.3539 5.43754 11.6607 5.6604 12.0158 5.71689L16.0492 6.35836C16.3516 6.40645 16.472 6.77706 16.2557 6.9937L13.3696 9.88343C13.1155 10.1379 12.9983 10.4985 13.0544 10.8537L13.6907 14.8879C13.7384 15.1903 13.4231 15.4194 13.1502 15.2806L9.5101 13.4288C9.18958 13.2657 8.81042 13.2657 8.4899 13.4288L4.84978 15.2806C4.57688 15.4194 4.26162 15.1903 4.30932 14.8879L4.94563 10.8537C5.00165 10.4985 4.88449 10.1379 4.63037 9.88343L1.74434 6.9937C1.52798 6.77706 1.6484 6.40645 1.95078 6.35836L5.98416 5.71689C6.33931 5.6604 6.64605 5.43754 6.80952 5.11723L8.66598 1.47948Z" stroke="#FFA409" stroke-width="0.75"/>
<defs>
<linearGradient id="paint0_linear_251_2136" x1="6.49973" y1="4.17659" x2="7.71618" y2="9.90657" gradientUnits="userSpaceOnUse">
<stop stop-color="white" stop-opacity="0.4"/>
<stop offset="1" stop-color="white" stop-opacity="0.6"/>
</linearGradient>
</defs>
</svg>
